<svg width="40" height="19" viewBox="0 0 40 19" fill="none" xmlns="http://www.w3.org/2000/svg">
<path fill-rule="evenodd" clip-rule="evenodd" d="M39.0599 9.18787C39.0599 14.2149 30.2911 18.3352 19.5297 18.3352C8.72345 18.3352 0 14.2149 0 9.18787C0 4.12027 8.72345 0 19.5297 0C30.2911 0 39.0599 4.12027 39.0599 9.18787ZM18.5996 7.91109C20.2826 7.62268 21.9208 7.08694 23.2053 6.6338C27.3678 5.27441 29.3169 3.87293 29.7154 3.54347C30.2464 3.09033 29.8484 2.92561 29.361 2.76088C26.5266 1.97829 22.2311 1.40147 19.4855 1.52515C17.4929 1.5662 16.385 3.58555 15.9429 4.45025C13.8614 8.52895 17.5812 8.11687 18.5996 7.91109ZM5.84547 13.6792C5.93437 13.5144 9.21088 6.38646 13.0637 2.51302C13.5505 2.10094 13.0196 2.01882 12.3997 2.14198C6.02266 3.29559 1.59349 6.01491 1.59349 9.1463C1.59349 10.8767 2.92213 12.484 5.1361 13.7613C5.44634 13.9265 5.75718 13.8028 5.84547 13.6792ZM20.4156 10.4241C18.7326 10.712 17.0944 11.2483 15.8099 11.7014C11.6474 13.0608 9.69892 14.5033 9.29978 14.8328C8.76821 15.2454 9.16673 15.4512 9.65416 15.5743C12.4886 16.3574 16.7841 16.9342 19.5297 16.8516C21.5223 16.769 22.6302 14.7502 23.117 13.8849C25.1538 9.80623 21.434 10.2594 20.4156 10.4241ZM37.4211 9.18787C37.4211 7.45796 36.1366 5.89176 33.8785 4.61446C33.5689 4.40868 33.3028 4.53234 33.1697 4.69656C33.082 4.82023 29.8049 11.9487 25.9515 15.8222C25.5088 16.2753 25.9956 16.3579 26.6161 16.2343C32.9925 15.0391 37.4211 12.3198 37.4211 9.18787Z" fill="white"/>
</svg>
