<svg width="24" height="18" viewBox="0 0 24 18" fill="none" xmlns="http://www.w3.org/2000/svg">
<path fill-rule="evenodd" clip-rule="evenodd" d="M7.73656 3.61873C8.12708 3.2282 8.12708 2.59504 7.73656 2.20451C7.34603 1.81399 6.71287 1.81399 6.32234 2.20451L0.292893 8.23396C-0.0976313 8.62449 -0.097631 9.25765 0.292893 9.64818L6.32234 15.6776C6.71287 16.0682 7.34603 16.0682 7.73656 15.6776C8.12708 15.2871 8.12708 14.6539 7.73656 14.2634L3.4731 9.99995H23C23.5523 9.99995 24 9.55224 24 8.99995C24 8.44767 23.5523 7.99995 23 7.99995H3.35533L7.73656 3.61873Z" fill="white"/>
<path opacity="0.5" fill-rule="evenodd" clip-rule="evenodd" d="M15 0C14.4477 0 14 0.447715 14 1C14 1.55228 14.4477 2 15 2H23C23.5523 2 24 1.55228 24 1C24 0.447715 23.5523 0 23 0H15ZM15 16C14.4477 16 14 16.4477 14 17C14 17.5523 14.4477 18 15 18H23C23.5523 18 24 17.5523 24 17C24 16.4477 23.5523 16 23 16H15Z" fill="white"/>
</svg>
