<svg width="24" height="18" viewBox="0 0 24 18" fill="none" xmlns="http://www.w3.org/2000/svg">
<path fill-rule="evenodd" clip-rule="evenodd" d="M16.2635 3.61873C15.8729 3.2282 15.8729 2.59504 16.2635 2.20451C16.654 1.81399 17.2872 1.81399 17.6777 2.20451L23.7071 8.23396C24.0977 8.62449 24.0977 9.25765 23.7071 9.64818L17.6777 15.6776C17.2872 16.0682 16.654 16.0682 16.2635 15.6776C15.8729 15.2871 15.8729 14.6539 16.2635 14.2634L20.5269 9.99995H1C0.447716 9.99995 0 9.55224 0 8.99995C0 8.44767 0.447716 7.99995 1 7.99995H20.6447L16.2635 3.61873Z" fill="white"/>
<path opacity="0.5" fill-rule="evenodd" clip-rule="evenodd" d="M9.00003 0C9.55232 0 10 0.447715 10 1C10 1.55228 9.55232 2 9.00003 2H1.00003C0.447745 2 3.05176e-05 1.55228 3.05176e-05 1C3.05176e-05 0.447715 0.447746 0 1.00003 0H9.00003ZM9.00003 16C9.55232 16 10 16.4477 10 17C10 17.5523 9.55232 18 9.00003 18H1.00003C0.447745 18 3.05176e-05 17.5523 3.05176e-05 17C3.05176e-05 16.4477 0.447746 16 1.00003 16H9.00003Z" fill="white"/>
</svg>
