<svg width="145" height="20" viewBox="0 0 145 20" fill="none" xmlns="http://www.w3.org/2000/svg">
<path fill-rule="evenodd" clip-rule="evenodd" d="M75.5255 2.85693H71.6974L68.0283 8.91984L64.3603 2.85693H60.6117L66.5929 12.0749V17.1426H69.6238V11.9921L75.5255 2.85693ZM58.945 2.85703V17.1427H55.9275V11.2454H49.2584V17.1427H46.1617V2.85703H49.2584V8.50408H55.9275V2.85703H58.945ZM85.9036 14.4003C86.7175 14.4003 86.881 14.1521 86.881 13.2386C86.881 12.5745 86.881 2.85693 86.8821 2.85693H89.9753V13.9865C89.9753 16.9761 87.3702 17.1426 87.3702 17.1426H77.1921V2.85693H80.2865V14.4003H85.9036ZM102.936 17.1426H106.092V6.01305C106.092 3.02247 103.421 2.85693 103.421 2.85693H93.3087V17.1426H96.463V5.59824H101.965C102.774 5.59824 102.935 5.8465 102.935 6.76095C102.936 7.42403 102.936 17.1426 102.936 17.1426ZM119.314 17.1426H109.425V2.85693H119.314C121.967 2.85693 122.209 5.68014 122.209 5.68014V14.3184C122.209 14.3184 121.967 17.1426 119.314 17.1426ZM118.108 14.4001C119.072 14.4001 119.072 13.2384 119.072 13.2384V6.75915C119.072 6.75915 119.072 5.59635 118.108 5.59635H112.479V14.4001H118.108ZM138.325 2.85802V17.1426H135.268V12.9904H128.523V17.1426H125.542V6.51168C125.542 2.69046 128.836 2.85802 128.836 2.85802H138.325ZM135.266 10.3319V5.59828H129.541C129.541 5.59828 128.521 5.59827 128.521 6.9265V10.3319H135.266ZM144.499 17.1426H141.659V2.85693H144.499V17.1426Z" fill="white"/>
<path fill-rule="evenodd" clip-rule="evenodd" d="M39.0599 10.0221C39.0599 15.5056 30.2911 20 19.5297 20C8.72345 20 0 15.5056 0 10.0221C0 4.49438 8.72345 0 19.5297 0C30.2911 0 39.0599 4.49438 39.0599 10.0221ZM18.5996 8.6294C20.2826 8.31481 21.9208 7.73042 23.2053 7.23614C27.3678 5.75331 29.3169 4.22458 29.7154 3.86521C30.2464 3.37093 29.8484 3.19125 29.361 3.01156C26.5266 2.15791 22.2311 1.52872 19.4855 1.66363C17.4929 1.70841 16.385 3.91111 15.9429 4.85432C13.8614 9.30336 17.5812 8.85386 18.5996 8.6294ZM5.84547 14.9212C5.93437 14.7415 9.21088 6.96633 13.0637 2.74119C13.5505 2.2917 13.0196 2.20212 12.3997 2.33647C6.02266 3.59483 1.59349 6.56106 1.59349 9.97677C1.59349 11.8643 2.92213 13.6175 5.1361 15.0108C5.44634 15.191 5.75718 15.0561 5.84547 14.9212ZM20.4156 11.3706C18.7326 11.6846 17.0944 12.2696 15.8099 12.7639C11.6474 14.2467 9.69892 15.8202 9.29978 16.1796C8.76821 16.6296 9.16674 16.8541 9.65416 16.9884C12.4886 17.8426 16.7841 18.4718 19.5297 18.3817C21.5223 18.2916 22.6302 16.0894 23.117 15.1457C25.1538 10.6966 21.434 11.1909 20.4156 11.3706ZM37.4211 10.0221C37.4211 8.13512 36.1366 6.42671 33.8785 5.03345C33.5689 4.80898 33.3028 4.94387 33.1697 5.123C33.082 5.2579 29.8049 13.0337 25.9515 17.2588C25.5088 17.7531 25.9956 17.8432 26.6161 17.7083C32.9925 16.4046 37.4211 13.4384 37.4211 10.0221Z" fill="white"/>
</svg>
