<svg width="32" height="32" viewBox="0 0 32 32" fill="none" xmlns="http://www.w3.org/2000/svg">
<path d="M17.4497 1V4.03455C24.0446 4.84577 28.7166 10.8398 27.9054 17.4347C27.2143 22.9029 22.9179 27.2444 17.4497 27.8903V30.8948C25.7121 30.0686 31.7211 22.7376 30.8948 14.4752C30.2188 7.33951 24.5553 1.70606 17.4497 1ZM14.4452 1.04507C11.5158 1.3305 8.72158 2.45719 6.43816 4.35003L8.58638 6.57336C10.2689 5.22133 12.2969 4.35003 14.4452 4.04957V1.04507ZM4.31998 6.4682C2.44165 8.74764 1.28573 11.5354 1 14.4752H4.00451C4.28994 12.342 5.1312 10.314 6.4682 8.61642L4.31998 6.4682ZM1.01502 17.4797C1.31547 20.4241 2.47221 23.2033 4.335 25.4867L6.4682 23.3385C5.14161 21.6404 4.29588 19.6168 4.01953 17.4797H1.01502ZM8.58638 25.5468L6.43816 27.6049C8.71374 29.5018 11.4997 30.6831 14.4452 31V27.9955C12.3081 27.7191 10.2845 26.8734 8.58638 25.5468ZM16.6985 8.4662V16.353L23.4587 20.364L22.332 22.2118L14.4452 17.4797V8.4662H16.6985Z" fill="#FFC44D"/>
</svg>
