<svg width="22" height="22" viewBox="0 0 22 22" fill="none" xmlns="http://www.w3.org/2000/svg">
<path d="M1.22222 12.2222H8.55556C8.87971 12.2222 9.19059 12.0935 9.4198 11.8642C9.64901 11.635 9.77778 11.3242 9.77778 11V1.22222C9.77778 0.898069 9.64901 0.587192 9.4198 0.357981C9.19059 0.128769 8.87971 0 8.55556 0H1.22222C0.898069 0 0.587192 0.128769 0.357981 0.357981C0.128769 0.587192 0 0.898069 0 1.22222V11C0 11.3242 0.128769 11.635 0.357981 11.8642C0.587192 12.0935 0.898069 12.2222 1.22222 12.2222ZM0 20.7778C0 21.1019 0.128769 21.4128 0.357981 21.642C0.587192 21.8712 0.898069 22 1.22222 22H8.55556C8.87971 22 9.19059 21.8712 9.4198 21.642C9.64901 21.4128 9.77778 21.1019 9.77778 20.7778V15.8889C9.77778 15.5647 9.64901 15.2539 9.4198 15.0246C9.19059 14.7954 8.87971 14.6667 8.55556 14.6667H1.22222C0.898069 14.6667 0.587192 14.7954 0.357981 15.0246C0.128769 15.2539 0 15.5647 0 15.8889V20.7778ZM12.2222 20.7778C12.2222 21.1019 12.351 21.4128 12.5802 21.642C12.8094 21.8712 13.1203 22 13.4444 22H20.7778C21.1019 22 21.4128 21.8712 21.642 21.642C21.8712 21.4128 22 21.1019 22 20.7778V12.2222C22 11.8981 21.8712 11.5872 21.642 11.358C21.4128 11.1288 21.1019 11 20.7778 11H13.4444C13.1203 11 12.8094 11.1288 12.5802 11.358C12.351 11.5872 12.2222 11.8981 12.2222 12.2222V20.7778ZM13.4444 8.55556H20.7778C21.1019 8.55556 21.4128 8.42679 21.642 8.19757C21.8712 7.96836 22 7.65749 22 7.33333V1.22222C22 0.898069 21.8712 0.587192 21.642 0.357981C21.4128 0.128769 21.1019 0 20.7778 0H13.4444C13.1203 0 12.8094 0.128769 12.5802 0.357981C12.351 0.587192 12.2222 0.898069 12.2222 1.22222V7.33333C12.2222 7.65749 12.351 7.96836 12.5802 8.19757C12.8094 8.42679 13.1203 8.55556 13.4444 8.55556Z" fill="url(#paint0_linear)"/>
<defs>
<linearGradient id="paint0_linear" x1="11" y1="0" x2="11" y2="22" gradientUnits="userSpaceOnUse">
<stop stop-color="#A9A9A9"/>
<stop offset="1" stop-color="#A9A9A9" stop-opacity="0"/>
</linearGradient>
</defs>
</svg>
