<svg width="24" height="25" viewBox="0 0 24 25" fill="none" xmlns="http://www.w3.org/2000/svg">
<path fill-rule="evenodd" clip-rule="evenodd" d="M7.5 15.5H22.5C22.8978 15.5 23.2794 15.658 23.5607 15.9393C23.842 16.2206 24 16.6022 24 17C24 17.3978 23.842 17.7794 23.5607 18.0607C23.2794 18.342 22.8978 18.5 22.5 18.5H7.5C7.10218 18.5 6.72064 18.342 6.43934 18.0607C6.15804 17.7794 6 17.3978 6 17C6 16.6022 6.15804 16.2206 6.43934 15.9393C6.72064 15.658 7.10218 15.5 7.5 15.5ZM7.5 21.5H22.5C22.8978 21.5 23.2794 21.658 23.5607 21.9393C23.842 22.2206 24 22.6022 24 23C24 23.3978 23.842 23.7794 23.5607 24.0607C23.2794 24.342 22.8978 24.5 22.5 24.5H7.5C7.10218 24.5 6.72064 24.342 6.43934 24.0607C6.15804 23.7794 6 23.3978 6 23C6 22.6022 6.15804 22.2206 6.43934 21.9393C6.72064 21.658 7.10218 21.5 7.5 21.5ZM16.5 9.5H22.5C22.8978 9.5 23.2794 9.65804 23.5607 9.93934C23.842 10.2206 24 10.6022 24 11C24 11.3978 23.842 11.7794 23.5607 12.0607C23.2794 12.342 22.8978 12.5 22.5 12.5H16.5C16.1022 12.5 15.7206 12.342 15.4393 12.0607C15.158 11.7794 15 11.3978 15 11C15 10.6022 15.158 10.2206 15.4393 9.93934C15.7206 9.65804 16.1022 9.5 16.5 9.5ZM5.6145 12.371L0 6.758L2.121 4.6355L5.6145 8.129L13.242 0.5L15.3645 2.621L5.6145 12.371Z" fill="url(#paint0_linear)"/>
<defs>
<linearGradient id="paint0_linear" x1="12" y1="0.5" x2="12" y2="24.5" gradientUnits="userSpaceOnUse">
<stop stop-color="white"/>
<stop offset="1" stop-color="white" stop-opacity="0.15"/>
</linearGradient>
</defs>
</svg>
