<svg width="21" height="22" viewBox="0 0 21 22" fill="none" xmlns="http://www.w3.org/2000/svg">
<path d="M10.504 8.00469C9.76311 8.00469 9.06927 8.28991 8.54393 8.81118C8.02107 9.33245 7.73115 10.0209 7.73115 10.7561C7.73115 11.4913 8.02107 12.1798 8.54393 12.701C9.06927 13.2198 9.76311 13.5075 10.504 13.5075C11.245 13.5075 11.9388 13.2198 12.4641 12.701C12.987 12.1798 13.2769 11.4913 13.2769 10.7561C13.2769 10.0209 12.987 9.33245 12.4641 8.81118C12.2075 8.55462 11.9021 8.35121 11.5656 8.21276C11.2292 8.07431 10.8683 8.00358 10.504 8.00469ZM20.7208 13.7952L19.1002 12.4207C19.177 11.9536 19.2167 11.4765 19.2167 11.002C19.2167 10.5274 19.177 10.048 19.1002 9.58325L20.7208 8.20877C20.8433 8.10478 20.9309 7.96627 20.972 7.81167C21.0132 7.65707 21.006 7.49369 20.9513 7.34327L20.929 7.27934C20.483 6.04179 19.8147 4.89466 18.9565 3.89354L18.9119 3.84191C18.8077 3.72032 18.6688 3.63292 18.5135 3.59122C18.3583 3.54953 18.1939 3.55549 18.0421 3.60832L16.03 4.31892C15.2866 3.71405 14.4589 3.23704 13.5619 2.9051L13.1728 0.817558C13.1435 0.660297 13.0666 0.515621 12.9524 0.402749C12.8382 0.289878 12.6921 0.214155 12.5335 0.185641L12.4666 0.173347C11.178 -0.0577823 9.8201 -0.0577823 8.53154 0.173347L8.46463 0.185641C8.30604 0.214155 8.15993 0.289878 8.04574 0.402749C7.93154 0.515621 7.85466 0.660297 7.82531 0.817558L7.43379 2.91493C6.54524 3.24952 5.71751 3.72537 4.98304 4.32384L2.95604 3.60832C2.8043 3.55507 2.63982 3.54889 2.48446 3.59061C2.3291 3.63234 2.19021 3.71998 2.08626 3.84191L2.04165 3.89354C1.18499 4.89573 0.516868 6.04257 0.0691638 7.27934L0.0468617 7.34327C-0.0646484 7.65062 0.0270378 7.99485 0.277316 8.20877L1.91775 9.59801C1.84094 10.0603 1.80376 10.5324 1.80376 10.9995C1.80376 11.4716 1.84094 11.9437 1.91775 12.4011L0.282272 13.7903C0.159848 13.8943 0.0722276 14.0328 0.0310619 14.1874C-0.0101039 14.342 -0.00286447 14.5054 0.0518176 14.6558L0.0741197 14.7197C0.522638 15.9565 1.18426 17.0999 2.04661 18.1055L2.09121 18.1572C2.19542 18.2787 2.33431 18.3661 2.48958 18.4078C2.64485 18.4495 2.80921 18.4436 2.96099 18.3907L4.988 17.6752C5.72644 18.2776 6.54914 18.7547 7.43874 19.0841L7.83027 21.1815C7.85962 21.3388 7.9365 21.4834 8.05069 21.5963C8.16489 21.7092 8.31099 21.7849 8.46959 21.8134L8.5365 21.8257C9.83773 22.0581 11.1703 22.0581 12.4716 21.8257L12.5385 21.8134C12.6971 21.7849 12.8432 21.7092 12.9574 21.5963C13.0716 21.4834 13.1484 21.3388 13.1778 21.1815L13.5668 19.094C14.4639 18.7596 15.2915 18.285 16.0349 17.6801L18.0471 18.3907C18.1988 18.444 18.3633 18.4502 18.5186 18.4085C18.674 18.3667 18.8129 18.2791 18.9168 18.1572L18.9615 18.1055C19.8238 17.0949 20.4854 15.9565 20.9339 14.7197L20.9562 14.6558C21.0628 14.3509 20.9711 14.0091 20.7208 13.7952ZM10.504 15.0787C8.09789 15.0787 6.1477 13.1436 6.1477 10.7561C6.1477 8.3686 8.09789 6.4335 10.504 6.4335C12.9102 6.4335 14.8604 8.3686 14.8604 10.7561C14.8604 13.1436 12.9102 15.0787 10.504 15.0787Z" fill="url(#paint0_linear)"/>
<defs>
<linearGradient id="paint0_linear" x1="10.5" y1="0" x2="10.5" y2="22" gradientUnits="userSpaceOnUse">
<stop stop-color="#A9A9A9"/>
<stop offset="1" stop-color="#A9A9A9" stop-opacity="0"/>
</linearGradient>
</defs>
</svg>
