<svg width="14" height="14" viewBox="0 0 14 14" fill="none" xmlns="http://www.w3.org/2000/svg">
<path d="M14 1.13756C13.9998 0.843368 13.8856 0.560695 13.6814 0.34895C13.4772 0.137205 13.1988 0.0128787 12.9048 0.00210013V0H1.19772V0.00315027C1.17742 0.00210022 1.15729 0 1.13682 0C0.901559 0.000153396 0.672133 0.073244 0.48014 0.209206C0.288146 0.345168 0.143029 0.537312 0.064775 0.759175C-0.0134791 0.981039 -0.0210206 1.22171 0.0431892 1.44804C0.107399 1.67436 0.240201 1.87522 0.423306 2.02293L5.69808 7.29754L5.69791 12.5525V12.5795H5.70054C5.70495 12.6799 5.73478 12.7775 5.78721 12.8632C5.83964 12.9489 5.91297 13.0199 6.00033 13.0695L5.99875 13.0723L7.37642 13.8677C7.38797 13.8758 7.40075 13.8816 7.41283 13.8887L7.41773 13.8915C7.50558 13.9423 7.60639 13.9734 7.71524 13.9734C7.79376 13.9735 7.87151 13.958 7.94405 13.928C8.01659 13.8979 8.08251 13.8539 8.13802 13.7984C8.19354 13.7429 8.23758 13.677 8.26761 13.6044C8.29765 13.5319 8.3131 13.4541 8.31307 13.3756C8.31307 13.3599 8.30957 13.345 8.30852 13.3296H8.31307V7.30244L13.6363 1.97935L13.6311 1.9741C13.7473 1.86796 13.8402 1.73874 13.9037 1.59471C13.9672 1.45067 14 1.29498 14 1.13756ZM3.89304 2.27512H3.89549L3.89566 2.27775L3.89304 2.27512Z" fill="#101010"/>
</svg>
