<svg width="14" height="17" viewBox="0 0 14 17" fill="none" xmlns="http://www.w3.org/2000/svg">
<path d="M4.45557 4.28574C4.4558 3.77784 4.59828 3.28136 4.86506 2.85887C5.13183 2.43637 5.51098 2.10675 5.95472 1.91153C6.39847 1.71631 6.88696 1.66423 7.35867 1.76184C7.83037 1.85945 8.26419 2.10239 8.60547 2.46006C8.91209 2.78834 9.13272 3.19548 9.24304 3.64204L9.24466 3.64804C9.30469 3.86108 9.4407 4.04114 9.62398 4.15023C9.80727 4.25933 10.0235 4.28891 10.227 4.23276C10.4306 4.1766 10.6055 4.03908 10.7149 3.84923C10.8243 3.65938 10.8596 3.43204 10.8134 3.21519C10.63 2.47304 10.2646 1.79513 9.75407 1.2498C9.18609 0.651979 8.46324 0.245351 7.67676 0.0812339C6.89027 -0.0828832 6.0754 0.00286629 5.33499 0.32766C4.59459 0.652453 3.96183 1.20173 3.51658 1.90617C3.07133 2.61061 2.83355 3.43864 2.83325 4.28574V6H4.45557V4.28574Z" fill="#4978f1"/>
<path fill-rule="evenodd" clip-rule="evenodd" d="M11.375 6H2.625C1.92881 6 1.26113 6.26744 0.768845 6.7435C0.276562 7.21955 0 7.86522 0 8.53846V14.4615C0 15.1348 0.276562 15.7804 0.768845 16.2565C1.26113 16.7326 1.92881 17 2.625 17H11.375C12.0712 17 12.7389 16.7326 13.2312 16.2565C13.7234 15.7804 14 15.1348 14 14.4615V8.53846C14 7.86522 13.7234 7.21955 13.2312 6.7435C12.7389 6.26744 12.0712 6 11.375 6ZM7 9C6.44772 9 6 9.44772 6 10V13C6 13.5523 6.44772 14 7 14C7.55228 14 8 13.5523 8 13V10C8 9.44772 7.55228 9 7 9Z" fill="#4978f1"/>
</svg>
