<svg width="19" height="19" viewBox="0 0 19 19" fill="none" xmlns="http://www.w3.org/2000/svg">
<path d="M7.50005 6.07574e-09C8.89811 -5.62562e-05 10.2684 0.390637 11.4562 1.12799C12.644 1.86534 13.6021 2.92 14.2223 4.17295C14.8425 5.4259 15.1002 6.82726 14.9663 8.21889C14.8324 9.61053 14.3122 10.937 13.4644 12.0487L18.2077 16.794C18.387 16.974 18.4912 17.2155 18.4989 17.4694C18.5067 17.7234 18.4175 17.9708 18.2494 18.1614C18.0814 18.3519 17.8471 18.4714 17.5942 18.4955C17.3412 18.5196 17.0886 18.4465 16.8876 18.2911L16.7936 18.2081L12.0483 13.4648C11.1013 14.1869 9.99585 14.6732 8.82357 14.8833C7.65128 15.0934 6.44581 15.0213 5.30692 14.673C4.16802 14.3247 3.12844 13.7102 2.27419 12.8803C1.41995 12.0505 0.775595 11.0291 0.394456 9.90077C0.0133175 8.77244 -0.0936499 7.56957 0.0824047 6.39169C0.258459 5.21381 0.712474 4.09478 1.40688 3.12721C2.10129 2.15964 3.01612 1.37134 4.07569 0.827535C5.13525 0.283732 6.30908 6.28587e-05 7.50005 6.07574e-09ZM7.50005 2.00012C6.04127 2.00012 4.64224 2.57962 3.61073 3.61113C2.57922 4.64264 1.99972 6.04167 1.99972 7.50044C1.99972 8.95922 2.57922 10.3582 3.61073 11.3898C4.64224 12.4213 6.04127 13.0008 7.50005 13.0008C8.95882 13.0008 10.3579 12.4213 11.3894 11.3898C12.4209 10.3582 13.0004 8.95922 13.0004 7.50044C13.0004 6.04167 12.4209 4.64264 11.3894 3.61113C10.3579 2.57962 8.95882 2.00012 7.50005 2.00012Z" fill="#101010"/>
</svg>
