<svg width="84" height="11" viewBox="0 0 84 11" fill="none" xmlns="http://www.w3.org/2000/svg">
<g opacity="0.3" clip-path="url(#clip0)">
<path fill-rule="evenodd" clip-rule="evenodd" d="M82.3447 9.42855H84V1.57141H82.3447V9.42855ZM34.3448 1.57146V9.4286H32.5866V6.18504H28.7008V9.4286H26.8965V1.57146H28.7008V4.67734H32.5866V1.57146H34.3448ZM49.7655 7.92028C50.2397 7.92028 50.3349 7.78372 50.3349 7.28135C50.3349 6.91608 50.3349 1.57141 50.3356 1.57141H52.1379V7.69269C52.1379 9.33694 50.62 9.42855 50.62 9.42855H44.6896V1.57141H46.4925V7.92028H49.7655ZM59.8166 9.42855H61.6551V3.30728C61.6551 1.66246 60.0991 1.57141 60.0991 1.57141H54.2068V9.42855H56.0447V3.07913H59.2507C59.7219 3.07913 59.8159 3.21567 59.8159 3.71862C59.8165 4.08331 59.8166 9.42855 59.8166 9.42855ZM41.6315 1.57141H43.862L40.4233 6.59578V9.42855H38.6573V6.64128L35.1723 1.57141H37.3565L39.4937 4.90601L41.6315 1.57141ZM63.3103 9.42855H69.0718C70.6178 9.42855 70.7586 7.87521 70.7586 7.87521V3.12418C70.7586 3.12418 70.6178 1.57141 69.0718 1.57141H63.3103V9.42855ZM68.931 7.28119C68.931 7.28119 68.931 7.92017 68.3694 7.92017H65.0898V3.07809H68.3694C68.931 3.07809 68.931 3.71763 68.931 3.71763V7.28119ZM80.2758 9.42855V1.57201H74.747C74.747 1.57201 72.8275 1.47985 72.8275 3.58152V9.42855H74.5642V7.14481H78.4942V9.42855H80.2758ZM78.4936 3.07915V5.68263H74.5635V3.80967C74.5635 3.07915 75.1576 3.07915 75.1576 3.07915H78.4936Z" fill="white"/>
<path fill-rule="evenodd" clip-rule="evenodd" d="M22.7586 5.51216C22.7586 8.52808 17.6494 11 11.3791 11C5.08279 11 0 8.52808 0 5.51216C0 2.47191 5.08279 0 11.3791 0C17.6494 0 22.7586 2.47191 22.7586 5.51216ZM10.8372 4.74617C11.8178 4.57314 12.7724 4.25173 13.5208 3.97988C15.9461 3.16432 17.0817 2.32352 17.3139 2.12586C17.6233 1.85401 17.3915 1.75519 17.1075 1.65636C15.4559 1.18685 12.9531 0.840797 11.3534 0.914994C10.1924 0.939624 9.54686 2.15111 9.28929 2.66987C8.07646 5.11685 10.2438 4.86962 10.8372 4.74617ZM3.40591 8.20666C3.45771 8.10783 5.3668 3.83148 7.61169 1.50766C7.89534 1.26043 7.58597 1.21117 7.2248 1.28506C3.50916 1.97716 0.928464 3.60858 0.928464 5.48722C0.928464 6.52537 1.70261 7.48962 2.9926 8.25592C3.17336 8.35505 3.35447 8.28086 3.40591 8.20666ZM11.8953 6.25382C10.9147 6.42654 9.96018 6.74827 9.21177 7.02012C6.78647 7.83568 5.65116 8.70111 5.4186 8.89876C5.10887 9.14629 5.34108 9.26975 5.62508 9.34364C7.2766 9.81346 9.77941 10.1595 11.3791 10.1099C12.5402 10.0604 13.1857 8.84919 13.4693 8.33012C14.6561 5.88314 12.4887 6.155 11.8953 6.25382ZM21.8037 5.51216C21.8037 4.47432 21.0553 3.53469 19.7396 2.7684C19.5592 2.64494 19.4041 2.71913 19.3266 2.81765C19.2755 2.89185 17.3661 7.16852 15.1209 9.49234C14.8629 9.7642 15.1466 9.81376 15.5081 9.73956C19.2234 9.02252 21.8037 7.39111 21.8037 5.51216Z" fill="white"/>
</g>
<defs>
<clipPath id="clip0">
<rect width="84" height="11" fill="white"/>
</clipPath>
</defs>
</svg>
