<svg xmlns="http://www.w3.org/2000/svg" width="158.59" height="50.222" viewBox="0 0 158.59 50.222">
    <defs>
        <style>
            .cls-1,.cls-2{fill:#fff}.cls-2{fill-rule:evenodd}
        </style>
    </defs>
    <g id="logo_main" transform="translate(-581.195 -416.278)">
        <path id="사각형_1" d="M0 0H158.59V3.515H0z" class="cls-1" transform="translate(581.195 445.039)"/>
        <g id="그룹_1" transform="translate(598.999 455.395)">
            <path id="패스_1" d="M206.864 164.726h2.291v9h4.9c.228 0 .348-.241.348-.429v-8.572h2.297v9.079c0 1.3-.892 1.8-2.464 1.8h-7.368v-10.878z" class="cls-2" transform="translate(-105.701 -164.726)"/>
            <path id="패스_2" d="M101.254 165.1h7.631a1.2 1.2 0 0 1 1.172 1.219v8.441a1.2 1.2 0 0 1-1.172 1.218h-7.631a1.2 1.2 0 0 1-1.172-1.218v-8.441a1.2 1.2 0 0 1 1.172-1.219m1.482 2.374h4.664a.3.3 0 0 1 .28.312v5.506a.3.3 0 0 1-.28.312h-4.667a.3.3 0 0 1-.28-.312v-5.506a.3.3 0 0 1 .28-.312" class="cls-2" transform="translate(-63.96 -164.871)"/>
            <path id="패스_3" d="M64.173 165.1H71.8a1.2 1.2 0 0 1 1.173 1.219v8.441a1.2 1.2 0 0 1-1.173 1.218h-7.63a1.2 1.2 0 0 1-1.17-1.22v-8.441a1.2 1.2 0 0 1 1.173-1.219m1.481 2.374h4.667a.3.3 0 0 1 .28.312v5.506a.3.3 0 0 1-.28.312h-4.667a.3.3 0 0 1-.279-.312v-5.506a.3.3 0 0 1 .279-.312" class="cls-2" transform="translate(-49.465 -164.871)"/>
            <path id="패스_4" d="M188.261 165.1h7.63a1.2 1.2 0 0 1 1.173 1.219v8.441a1.2 1.2 0 0 1-1.173 1.218h-7.63a1.2 1.2 0 0 1-1.173-1.218v-8.441a1.2 1.2 0 0 1 1.173-1.219m1.481 2.374h4.667a.3.3 0 0 1 .28.312v5.506a.3.3 0 0 1-.28.312h-4.667a.3.3 0 0 1-.28-.312v-5.506a.3.3 0 0 1 .28-.312" class="cls-2" transform="translate(-97.971 -164.871)"/>
            <path id="패스_5" d="M43.746 164.726l2.82 7.749 2.82-7.749h2.968V175.6h-2.29v-6.768l-2.377 6.768h-2.241l-2.377-6.768v6.768h-2.291v-10.874z" class="cls-2" transform="translate(-40.778 -164.726)"/>
            <path id="패스_6" d="M167.423 164.726h7.977c1.2 0 1.852.926 1.852 2.25v3.183c-.012 1.283-.643 2.184-1.8 2.213l2.2 3.232h-2.542l-2.2-3.231h-3.2v3.227h-2.291v-10.874m2.291 1.877v3.897h4.978a.288.288 0 0 0 .272-.314v-3.249c0-.2-.088-.33-.44-.33h-4.811" class="cls-2" transform="translate(-90.284 -164.726)"/>
            <path id="패스_7" d="M119.784 164.726h7.979c1.2 0 1.853.926 1.853 2.25v3.183c-.012 1.283-.643 2.184-1.8 2.213l2.2 3.232h-2.545l-2.2-3.231h-3.2v3.227h-2.29v-10.874m2.29 1.877v3.897h4.979a.288.288 0 0 0 .272-.314v-3.249c0-.2-.088-.33-.439-.33h-4.811" class="cls-2" transform="translate(-71.662 -164.726)"/>
            <path id="패스_8" d="M150.384 164.726h7.558v2.29h-7.558v6.712h4.9c.228 0 .348-.241.348-.429v-2.075h-2.715v-2.106h5v4.688c0 1.3-.892 1.8-2.464 1.8h-5.986c-1.041 0-1.381-.982-1.381-1.934v-6.654a2.079 2.079 0 0 1 2.29-2.29z" class="cls-2" transform="translate(-82.728 -164.726)"/>
            <path id="패스_9" d="M85.536 164.726h6.117v2.29h-3.827v8.584h-2.29v-8.588h-3.828v-2.29z" class="cls-2" transform="translate(-56.778 -164.726)"/>
            <path id="패스_10" d="M226.544 164.726h7.979c1.2 0 1.852.926 1.852 2.25v3.183c-.012 1.3-.662 2.214-1.852 2.214h-5.688v3.227h-2.291v-10.874m2.291 1.877v3.897h4.979a.288.288 0 0 0 .272-.314v-3.249c0-.2-.088-.33-.44-.33h-4.811" class="cls-2" transform="translate(-113.394 -164.726)"/>
        </g>
        <g id="그룹_2" transform="translate(581.602 416.279)">
            <path id="패스_11" d="M49.523 100.506h6.038l6.377 9.82 6.377-9.82h6.038L64.4 115.845v8.041h-4.923v-8.052l-9.954-15.329z" class="cls-2" transform="translate(-26.799 -100.506)"/>
            <path id="패스_12" d="M93.25 100.506h4.923v19.347h10.539c.49 0 .747-.516.747-.925v-18.422h4.922v19.514c0 2.79-1.918 3.867-5.3 3.867H93.25v-23.381z" class="cls-2" transform="translate(-43.892 -100.506)"/>
            <path id="패스_13" d="M135.649 123.887h4.922V104.54h10.539c.49 0 .748.516.748.925v18.422h4.922v-19.513c0-2.79-1.918-3.867-5.3-3.867h-15.831v23.38z" class="cls-2" transform="translate(-60.466 -100.506)"/>
            <path id="패스_14" d="M177.511 100.506h17.149c2.58 0 3.982 1.991 3.982 4.836v13.787c-.025 2.8-1.424 4.758-3.98 4.758h-17.151v-23.381m4.922 4.034v15.313h10.7a.62.62 0 0 0 .584-.675v-13.929c0-.434-.189-.709-.945-.709h-10.339" class="cls-2" transform="translate(-76.83 -100.506)"/>
            <path id="사각형_2" d="M0 0H4.922V23.38H0z" class="cls-1" transform="translate(152.601)"/>
            <path id="패스_15" d="M219.248 104.9c0-2.542 1.416-4.39 4.175-4.39H240.3v23.381h-4.922v-7.8H224.17v7.8h-4.922V104.9m4.922-.356v7.518h11.211v-7.522H224.17" class="cls-2" transform="translate(-93.145 -100.506)"/>
            <path id="패스_16" d="M12.216 100.506h4.922v9.366H28.35v-9.366h4.922v23.38H28.35v-9.982H17.138v9.982h-4.922v-23.38z" class="cls-2" transform="translate(-12.216 -100.506)"/>
        </g>
    </g>
</svg>
