<svg width="20" height="20" viewBox="0 0 20 20" fill="none" xmlns="http://www.w3.org/2000/svg">
<circle cx="10" cy="10" r="10" fill="#C9C9C9"/>
<path fill-rule="evenodd" clip-rule="evenodd" d="M13.182 7.88909C13.3772 7.69383 13.3772 7.37724 13.182 7.18198C12.9867 6.98672 12.6701 6.98672 12.4749 7.18198L10 9.65685L7.52513 7.18198C7.32986 6.98672 7.01328 6.98672 6.81802 7.18198C6.62276 7.37724 6.62276 7.69383 6.81802 7.88909L9.29289 10.364L6.81802 12.8388C6.62276 13.0341 6.62276 13.3507 6.81802 13.5459C7.01328 13.7412 7.32986 13.7412 7.52513 13.5459L10 11.0711L12.4749 13.5459C12.6701 13.7412 12.9867 13.7412 13.182 13.5459C13.3772 13.3507 13.3772 13.0341 13.182 12.8388L10.7071 10.364L13.182 7.88909Z" fill="white"/>
</svg>
